<?xml version="1.0"?><svg version="1.1" id="圖層_1" xmlns="http://www.w3.org/2000/svg" x="0" y="0" viewBox="0 0 100 100" xml:space="preserve"><ellipse cx="50" cy="82.4" rx="24.5" ry="6.6" stroke-width="3.5" stroke-miterlimit="10" fill="#e0e0e0" stroke="#333"/><path d="M61.7 76.6c.5.9.7 1.8.7 2.8 0 3.6-3.3 7.4-8.1 9.5 11.5-.5 20.2-3.2 20.2-6.5 0-2.5-5.1-4.7-12.8-5.8z" opacity=".2" stroke-linejoin="round" stroke="#000" stroke-width="3.5" stroke-miterlimit="10"/><path d="M50 11.4c-10.8 0-19.5 8.7-19.5 19.5 0 .8 0 1.5.1 2.2h0c.1.6.2 1.1.3 1.7l.5 2c.2.7.4 1.3.7 1.9L49.2 81c.3.7 1.3.7 1.6 0l17.1-42.3c.3-.6.5-1.3.7-1.9l.5-2c.1-.5.3-1.1.3-1.7h0c.1-.7.1-1.5.1-2.2 0-10.7-8.7-19.5-19.5-19.5zm0 27.8c-4.6 0-8.3-3.7-8.3-8.3s3.7-8.3 8.3-8.3 8.3 3.7 8.3 8.3-3.7 8.3-8.3 8.3z" fill="#f47e60" stroke-linecap="round" stroke="#333" stroke-width="3.5" stroke-miterlimit="10"/><path d="M50 11.4c-1.4 0-2.8.2-4.1.4 8.8 1.9 15.4 9.7 15.4 19.1 0 .8 0 1.5-.1 2.2h0c-.1.6-.2 1.1-.3 1.7l-.5 2c-.2.7-.4 1.3-.7 1.9L46 72.7l3.3 8.3c.3.7 1.3.7 1.6 0L68 38.7c.3-.6.5-1.3.7-1.9l.5-2c.1-.5.3-1.1.3-1.7h0c.1-.7.1-1.5.1-2.2-.1-10.7-8.8-19.5-19.6-19.5z" opacity=".2" stroke-linecap="round" stroke-linejoin="round" stroke="#000" stroke-width="3.5" stroke-miterlimit="10"/><path d="M41 19.7c1.6-1.3 3.5-2.2 5.5-2.7" fill="none" stroke-linecap="round" stroke="#fff" stroke-width="3.5" stroke-miterlimit="10"/><path d="M37.3 24.1c.2-.4.4-.7.6-1.1" fill="none" stroke-linecap="round" stroke="#fff" stroke-width="3.5" stroke-miterlimit="10"/><metadata xmlns:d="https://loading.io/stock/">
<d:name>location</d:name>
<d:tags>location,place,locality,marker,landmark,waypoint,gps</d:tags>
<d:license>by</d:license>
<d:slug>a6zdyj</d:slug>
</metadata></svg>